<svg width="333" height="300" viewBox="0 0 333 300" fill="none" xmlns="http://www.w3.org/2000/svg">
<path d="M283.836 0C222.17 0 192.975 79.7255 192.975 79.7255L197.747 86.65C203.221 83.3749 209.771 79.7255 217.351 79.7255C225.585 79.7255 232.416 85.8079 232.416 101.856C232.416 128.431 202.051 193.746 174.774 193.746C162.656 193.746 157.229 174.095 149.369 138.584C146.702 128.197 142.023 101.575 135.239 58.8116C128.923 19.1828 124.431 3.32189 102.067 3.32189C50.7413 3.32189 0.35144 74.8128 0.35144 74.8128L7.65026 90.0187C13.1244 86.7436 19.6278 83.0474 29.1724 83.0474C47.3727 83.0474 49.1974 103.26 59.6309 140.689C69.0352 175.031 78.299 208.765 87.8437 243.715C97.435 278.665 117.132 300 141.368 300C177.722 300 212.719 269.167 260.255 207.642C282.385 179.289 305.685 141.204 317.897 114.395C330.249 87.3518 332.307 64.3325 332.307 53.7586C332.307 23.0661 320.189 0 283.836 0Z" fill="#0E1216"/>
</svg>
